# File created by Blade
# Date/Time:  Tue Jan 27 18:09:18 2015
#---------------------------------------------------------
:version 1.10
:name HOM
:units
  mass 1.0
  length 1.000000
  angle deg
:documentation
     Acclaim Skeleton File
:root
   axis xyz
   order TX TY TZ RX RY RZ
   position 0.000000 0.000000 0.000000
   orientation 0 0 0
:bonedata
   begin
      id 1
      name Spine_dum
      direction 0.000000 1.000000 0.000000
      length 5.195262
      axis 0.0 0.0 0.0 xyz
   end
   begin
      id 2
      name LeftUpLeg_dum
      direction 1.000000 0.000000 0.000000
      length 3.351363
      axis 0.0 0.0 0.0 xyz
   end
   begin
      id 3
      name RightUpLeg_dum
      direction -1.000000 0.000000 0.000000
      length 3.351363
      axis 0.0 0.0 0.0 xyz
   end
   begin
      id 4
      name Spine
      direction 0.000000 1.000000 0.000000
      length 0.000000
      axis 0.0 0.0 0.0 xyz
      dof rx ry rz
   end
   begin
      id 5
      name Spine_dum1
      direction 0.000000 1.000000 0.000000
      length 15.653875
      axis 0.0 0.0 0.0 xyz
   end
   begin
      id 6
      name Spine_dum2
      direction 0.000000 1.000000 0.000000
      length 10.329768
      axis 0.0 0.0 0.0 xyz
   end
   begin
      id 7
      name Spine_dum3
      direction 0.000000 1.000000 0.000000
      length 10.329768
      axis 0.0 0.0 0.0 xyz
   end
   begin
      id 8
      name Head
      direction 0.000000 1.000000 0.000000
      length 4.527550
      axis 0.0 0.0 0.0 xyz
      dof rx ry rz
   end
   begin
      id 9
      name LeftShoulder
      direction 1.000000 0.000000 0.000000
      length 6.996006
      axis 0.0 0.0 -90.0 xyz
      dof rx ry rz
   end
   begin
      id 10
      name LeftArm
      direction 1.000000 0.000000 0.000000
      length 10.209302
      axis 0.0 0.0 -90.0 xyz
      dof rx ry rz
   end
   begin
      id 11
      name LeftForeArm
      direction 1.000000 0.000000 0.000000
      length 8.563163
      axis 0.0 0.0 -90.0 xyz
      dof ry rz rx
   end
   begin
      id 12
      name LeftHand
      direction 0.000000 0.000000 0.000000
      length 0.000000
      axis 0.0 0.0 -90.0 xyz
      dof rx ry rz
   end
   begin
      id 13
      name LeftHand_dum1
      direction 0.000000 0.000000 0.000000
      length 0.000000
      axis 0.0 0.0 -90.0 xyz
   end
   begin
      id 14
      name LeftHand_dum2
      direction 1.000000 0.000000 0.000000
      length 3.937000
      axis 0.0 0.0 -90.0 xyz
   end
   begin
      id 15
      name LeftHandThumb1
      direction 0.000000 0.000000 1.000000
      length 3.937000
      axis 0.0 0.0 -90.0 xyz
      dof rx rz ry
   end
   begin
      id 16
      name RightShoulder
      direction -1.000000 0.000000 0.000000
      length 6.996006
      axis 0.0 0.0 90.0 xyz
      dof rx ry rz
   end
   begin
      id 17
      name RightArm
      direction -1.000000 0.000000 0.000000
      length 10.209302
      axis 0.0 0.0 90.0 xyz
      dof rx ry rz
   end
   begin
      id 18
      name RightForeArm
      direction -1.000000 0.000000 0.000000
      length 8.563163
      axis 0.0 0.0 90.0 xyz
      dof ry rz rx
   end
   begin
      id 19
      name RightHand
      direction 0.000000 0.000000 0.000000
      length 0.000000
      axis 0.0 0.0 90.0 xyz
      dof rx ry rz
   end
   begin
      id 20
      name RightHand_dum1
      direction 0.000000 0.000000 0.000000
      length 0.000000
      axis 0.0 0.0 90.0 xyz
   end
   begin
      id 21
      name RightHand_dum2
      direction -1.000000 0.000000 0.000000
      length 3.937000
      axis 0.0 0.0 90.0 xyz
   end
   begin
      id 22
      name RightHandThumb1
      direction 0.000000 0.000000 1.000000
      length 3.937000
      axis 0.0 0.0 90.0 xyz
      dof rx rz ry
   end
   begin
      id 23
      name LeftUpLeg
      direction 0.000000 -1.000000 0.000000
      length 16.346831
      axis 0.0 0.0 0.0 xyz
      dof rx ry rz
   end
   begin
      id 24
      name LeftLeg
      direction 0.000000 -1.000000 0.000000
      length 13.959795
      axis 0.0 0.0 0.0 xyz
      dof rx ry rz
   end
   begin
      id 25
      name LeftFoot
      direction 0.000000 -0.258819 0.965926
      length 5.165550
      axis 15.0 0.0 0.0 xyz
      dof rx ry rz
   end
   begin
      id 26
      name LeftToeBase
      direction 0.000000 0.000000 1.000000
      length 2.952750
      axis 0.0 0.0 0.0 xyz
      dof rx ry rz
   end
   begin
      id 27
      name RightUpLeg
      direction 0.000000 -1.000000 0.000000
      length 16.346831
      axis 0.0 0.0 0.0 xyz
      dof rx ry rz
   end
   begin
      id 28
      name RightLeg
      direction 0.000000 -1.000000 0.000000
      length 13.959795
      axis 0.0 0.0 0.0 xyz
      dof rx ry rz
   end
   begin
      id 29
      name RightFoot
      direction 0.000000 -0.258819 0.965926
      length 5.165550
      axis 15.0 0.0 0.0 xyz
      dof rx ry rz
   end
   begin
      id 30
      name RightToeBase
      direction 0.000000 0.000000 1.000000
      length 2.952750
      axis 0.0 0.0 0.0 xyz
      dof rx ry rz
   end
:hierarchy
   begin
      root Spine_dum LeftUpLeg_dum RightUpLeg_dum
      Spine_dum Spine
      LeftUpLeg_dum LeftUpLeg
      RightUpLeg_dum RightUpLeg
      Spine Spine_dum1 Spine_dum2 Spine_dum3
      Spine_dum1 Head
      Spine_dum2 LeftShoulder
      Spine_dum3 RightShoulder
      LeftShoulder LeftArm
      LeftArm LeftForeArm
      LeftForeArm LeftHand
      LeftHand LeftHand_dum1 LeftHand_dum2
      LeftHand_dum1 LeftHandThumb1
      RightShoulder RightArm
      RightArm RightForeArm
      RightForeArm RightHand
      RightHand RightHand_dum1 RightHand_dum2
      RightHand_dum1 RightHandThumb1
      LeftUpLeg LeftLeg
      LeftLeg LeftFoot
      LeftFoot LeftToeBase
      RightUpLeg RightLeg
      RightLeg RightFoot
      RightFoot RightToeBase
   end

# File created by Blade
# Date/Time:  Tue Jan 27 18:09:10 2015
# Frame Rate: 120.000 fps
#------------------------------------------------------
:FULLY-SPECIFIED
:DEGREES
1540
root -1.436327 31.863662 -6.772127 5.341117 18.637963 4.580514
Spine -7.514170 0.670534 -3.684408
Head -2.877640 -19.430485 -0.016187
LeftShoulder -7.088106 15.156081 5.120475
LeftArm 30.211641 46.081087 -63.956619
LeftForeArm -3.597967 -0.000000 13.452398
LeftHand -10.809344 -0.000000 -6.971448
LeftHandThumb1 -26.253704 0.000000 33.147579
RightShoulder 7.282884 29.833599 -27.242804
RightArm 52.817464 41.091252 112.980185
RightForeArm 8.845670 -0.000000 113.700021
RightHand -12.531592 0.000000 -13.858809
RightHandThumb1 -24.326973 -0.000000 -32.862282
LeftUpLeg -2.431473 -7.848792 -1.270396
LeftLeg 1.421004 -0.000000 -0.000000
LeftFoot -14.577135 12.959866 -23.681179
LeftToeBase 8.412392 -0.000000 -0.000000
RightUpLeg 3.871997 -11.388578 -4.134597
RightLeg -3.509965 -0.000000 0.000000
RightFoot -16.889068 -18.017103 10.926711
RightToeBase 5.404370 -0.000000 -0.000000
1541
root -1.436810 31.863509 -6.770774 5.334528 18.648111 4.579769
Spine -7.506982 0.606337 -3.687529
Head -2.849075 -19.398185 0.034417
LeftShoulder -7.097422 15.167733 5.127140
LeftArm 30.169264 46.067810 -63.990472
LeftForeArm -3.627695 -0.000000 13.453466
LeftHand -10.818944 -0.000000 -6.943454
LeftHandThumb1 -26.253704 0.000000 33.147579
RightShoulder 7.196921 29.748546 -27.335684
RightArm 52.579015 40.838387 112.324511
RightForeArm 8.597619 0.000000 113.328220
RightHand -12.460877 -0.000000 -13.477157
RightHandThumb1 -24.326973 -0.000000 -32.862282
LeftUpLeg -2.424781 -7.874843 -1.266491
LeftLeg 1.425604 -0.000000 -0.000000
LeftFoot -14.599215 12.942202 -23.710555
LeftToeBase 8.567847 -0.000000 -0.000000
RightUpLeg 3.875576 -11.390785 -4.134131
RightLeg -3.493948 -0.000000 0.000000
RightFoot -16.890735 -18.026060 10.911680
RightToeBase 5.395236 -0.000000 -0.000000
1542
root -1.438445 31.863129 -6.769255 5.326844 18.651225 4.571190
Spine -7.503598 0.551063 -3.686083
Head -2.811927 -19.368565 0.086006
LeftShoulder -7.100424 15.206208 5.134325
LeftArm 30.145547 46.021172 -64.018594
LeftForeArm -3.664912 -0.000000 13.457794
LeftHand -10.819934 0.000000 -6.953803
LeftHandThumb1 -26.253704 0.000000 33.147579
RightShoulder 7.108073 29.672984 -27.442836
RightArm 52.419851 40.621768 111.823476
RightForeArm 8.578782 0.000000 112.981111
RightHand -12.622449 -0.000000 -13.046658
RightHandThumb1 -24.326973 -0.000000 -32.862282
LeftUpLeg -2.415624 -7.871062 -1.256427
LeftLeg 1.421157 -0.000000 -0.000000
LeftFoot -14.619381 12.941926 -23.723013
LeftToeBase 8.610582 -0.000000 -0.000000
RightUpLeg 3.878893 -11.386263 -4.122951
RightLeg -3.485621 -0.000000 0.000000
RightFoot -16.913708 -18.021034 10.933713
RightToeBase 5.439903 -0.000000 -0.000000
1543
root -1.439059 31.862891 -6.767906 5.320685 18.653744 4.568183
Spine -7.499168 0.494498 -3.685892
Head -2.777882 -19.329735 0.127979
LeftShoulder -7.093034 15.216873 5.146394
LeftArm 30.072217 45.984823 -64.081515
LeftForeArm -3.668352 -0.000000 13.470577
LeftHand -10.788896 -0.000000 -6.957824
LeftHandThumb1 -26.253704 0.000000 33.147579
RightShoulder 7.014590 29.558887 -27.562374
RightArm 52.256726 40.329217 111.249962
RightForeArm 8.326474 -0.000000 112.585009
RightHand -12.491256 -0.000000 -12.814000
RightHandThumb1 -24.326973 -0.000000 -32.862282
LeftUpLeg -2.409768 -7.872990 -1.252807
LeftLeg 1.424381 -0.000000 -0.000000
LeftFoot -14.606359 12.944828 -23.701472
LeftToeBase 8.522760 -0.000000 -0.000000
RightUpLeg 3.879594 -11.378910 -4.119844
RightLeg -3.471660 -0.000000 0.000000
RightFoot -16.911305 -18.026867 10.927846
RightToeBase 5.372957 -0.000000 -0.000000
